# xmcd CD database file
#
# Track frame offsets:
#	150
#	17990
#	41155
#	60028
#	97853
#	117962
#	137273
#	161165
#	190958
#	211606
#	235146
#
# Disc length: 3413 seconds
#
# Revision: 0
# Processed by: cddbd v1.5.2PL0 Copyright (c) Steve Scherf et al.
# Submitted via: CDex 1.51
#
DISCID=850d530b
DTITLE=Smokin' Joe Kowalski and Freunde - Blues Auf Bergisch
DYEAR=2006
DGENRE=Blues
TTITLE0=Man nennt mich Smokin' Joe Kowalski
TTITLE1=Blues auf Bergisch
TTITLE2=Pausenclown
TTITLE3=Ich hab' dich satt
TTITLE4=Aldi-Slalom
TTITLE5=SJK is back in town
TTITLE6=Tauben am Döppersberg
TTITLE7=Voodoo Mann
TTITLE8=Arm, alt, hässlich und krank
TTITLE9=Zivilisiert
TTITLE10=Wenn ich die Kohle hab'
EXTD=YEAR: 2006
EXTT0=
EXTT1=
EXTT2=
EXTT3=
EXTT4=
EXTT5=
EXTT6=
EXTT7=
EXTT8=
EXTT9=
EXTT10=
PLAYORDER=
